<svg width="25" height="23" viewBox="0 0 25 23" fill="none" xmlns="http://www.w3.org/2000/svg">
<g clip-path="url(#clip0_2507_144)">
<path d="M6.05469 19.2063C6.05469 19.2063 11.5361 22.5039 13.5682 22.3902C16.705 22.2144 23.76 17.1389 23.76 17.1389C24.1351 16.9322 24.3748 16.529 24.3748 16.1052C24.3748 15.4436 23.8538 14.9578 23.2598 14.9165C23.0618 14.9061 22.8638 14.9371 22.6658 15.0302L19.3206 16.5704L18.091 17.1389" stroke="#464646" stroke-width="1.2" stroke-linecap="round" stroke-linejoin="round"/>
<path d="M6.05469 13.3349C6.05469 13.3349 9.07678 13.3142 9.88962 13.3349C10.8067 13.3555 11.7654 13.645 12.6616 14.1308C13.2348 14.4409 13.7767 14.8131 14.256 15.2576H17.0489C17.7054 15.2576 18.2473 15.7744 18.2681 16.436C18.2681 16.4773 18.3098 16.7875 18.0701 17.1389" stroke="#464646" stroke-width="1.2" stroke-linecap="round" stroke-linejoin="round"/>
<path d="M18.268 16.467C18.268 17.139 17.7261 17.6868 17.0487 17.6868H11.6506" stroke="#464646" stroke-width="1.2" stroke-linecap="round" stroke-linejoin="round"/>
<path d="M6.05459 13.3349V13.1075C6.05459 12.5803 5.62733 12.1565 5.10628 12.1565H1.57356C1.05251 12.1565 0.625244 12.5803 0.625244 13.1075V19.4338C0.625244 19.961 1.05251 20.3848 1.57356 20.3848H5.10628C5.62733 20.3848 6.05459 19.961 6.05459 19.4338V13.3349Z" stroke="#464646" stroke-width="1.2" stroke-linecap="round" stroke-linejoin="round"/>
<path d="M3.93922 18.2553C3.93922 18.5861 3.66827 18.8549 3.34522 18.8549C3.02217 18.8549 2.75122 18.5861 2.75122 18.2553C2.75122 17.9245 3.02217 17.6558 3.34522 17.6558C3.66827 17.6558 3.93922 17.9245 3.93922 18.2553Z" stroke="#464646" stroke-width="1.2" stroke-linecap="round" stroke-linejoin="round"/>
<path d="M22.4052 12.7766L20.5815 12.973L14.8708 9.22066L13.5056 8.32133C12.0467 9.66515 9.79574 9.90291 8.05543 8.76583C6.0025 7.42201 5.43976 4.67235 6.78407 2.6256C8.1388 0.568525 10.8899 -1.44289e-05 12.9429 1.35414C14.6624 2.48088 15.3397 4.59999 14.7145 6.46066L15.767 7.15324L17.2676 7.51504L17.8929 8.7865L19.3935 8.91055L20.2167 10.3061L21.8216 10.5025L22.4052 12.7766Z" stroke="#464646" stroke-width="1.2" stroke-linecap="round" stroke-linejoin="round"/>
<path d="M9.74353 4.5586C9.49342 4.94107 8.98279 5.04445 8.59722 4.79636C8.22206 4.54827 8.10743 4.04175 8.35753 3.65928C8.60764 3.2768 9.11827 3.18377 9.49342 3.43186C9.879 3.67995 9.98321 4.18647 9.73311 4.56894L9.74353 4.5586Z" stroke="#464646" stroke-width="1.2" stroke-linecap="round" stroke-linejoin="round"/>
</g>
<defs>
<clipPath id="clip0_2507_144">
<rect width="25" height="23" fill="white"/>
</clipPath>
</defs>
</svg>
