<svg width="39" height="22" viewBox="0 0 39 22" fill="none" xmlns="http://www.w3.org/2000/svg">
<path d="M28.2234 19.6748H36.7713" stroke="#464646" stroke-width="1.2" stroke-linecap="round" stroke-linejoin="round"/>
<path d="M32.5 8.51025V19.6749" stroke="#464646" stroke-width="1.2" stroke-linecap="round" stroke-linejoin="round"/>
<path d="M34.5 8.53687V13.5073" stroke="#464646" stroke-width="1.2" stroke-linecap="round" stroke-linejoin="round"/>
<path d="M34.5 12.8499C34.7234 12.8499 34.9042 13.0316 34.9042 13.256C34.9042 13.4805 34.7234 13.6622 34.5 13.6622C34.2766 13.6622 34.0957 13.4805 34.0957 13.256C34.0957 13.0316 34.2766 12.8499 34.5 12.8499Z" stroke="#464646" stroke-width="1.2" stroke-linecap="round" stroke-linejoin="round"/>
<path d="M29.7818 0.888916H35.2126C35.4786 0.888916 35.6382 1.07597 35.6967 1.27907L37.6062 7.97039C37.6648 8.17348 37.3828 8.36054 37.1222 8.36054H27.8722C27.6116 8.36054 27.3296 8.17883 27.3882 7.97039L29.3031 1.27907C29.3616 1.07063 29.5211 0.888916 29.7871 0.888916H29.7818Z" stroke="#464646" stroke-width="1.2" stroke-linecap="round" stroke-linejoin="round"/>
<path d="M24.4164 18.3962V20.1566H21.1724V18.2344" stroke="#464646" stroke-width="1.2" stroke-linecap="round" stroke-linejoin="round"/>
<path d="M5.82114 18.2344V20.1566H2.5835V18.3962" stroke="#464646" stroke-width="1.2" stroke-linecap="round" stroke-linejoin="round"/>
<path d="M24.1011 9.36133H25.2533C25.4078 9.36133 25.5301 9.49077 25.5301 9.63962V17.5808C25.5301 17.7361 25.4013 17.8591 25.2533 17.8591H1.74016C1.58568 17.8591 1.46338 17.7296 1.46338 17.5808V9.6461C1.46338 9.49077 1.59211 9.3678 1.74016 9.3678H2.89232C4.12172 9.3678 5.12584 10.3774 5.12584 11.6136V14.1894H21.8676V11.6136C21.8676 10.3774 22.8717 9.3678 24.1011 9.3678V9.36133Z" stroke="#464646" stroke-width="1.2" stroke-linecap="round" stroke-linejoin="round"/>
<path d="M5.13867 13.6718V6.70142C5.13867 5.74356 5.91751 4.96045 6.87013 4.96045H11.7298C12.6824 4.96045 13.4613 5.75003 13.4613 6.70142V13.6718" stroke="#464646" stroke-width="1.2" stroke-linecap="round" stroke-linejoin="round"/>
<path d="M13.5322 13.6718V6.70142C13.5322 5.74356 14.3111 4.96045 15.2637 4.96045H20.1234C21.076 4.96045 21.8548 5.75003 21.8548 6.70142V13.6718" stroke="#464646" stroke-width="1.2" stroke-linecap="round" stroke-linejoin="round"/>
</svg>
